<?xml version="1.0" encoding="UTF-8"?>
<!DOCTYPE svg PUBLIC "-//W3C//DTD SVG 1.1//EN" "http://www.w3.org/Graphics/SVG/1.1/DTD/svg11.dtd">
<svg version="1.1" xmlns="http://www.w3.org/2000/svg" xmlns:xlink="http://www.w3.org/1999/xlink" x="0" y="0" width="944" height="704" viewBox="0, 0, 944, 704">
  <g id="Background">
    <rect x="0" y="0" width="944" height="704" fill="#FFFFFF"/>
  </g>
  <g id="Layer_1">
    <path d="M95.717,185.149 L96.395,184.989 L97.866,184.596 L99.418,184.128 L101.028,183.587 L102.691,182.981 L104.405,182.314 L106.168,181.588 L107.977,180.808 L109.834,179.961 L111.733,179.062 L113.672,178.115 L115.65,177.122 L117.665,176.074 L119.714,174.981 L121.796,173.849 L123.907,172.681 L126.048,171.462 L128.213,170.212 L130.402,168.932 L132.612,167.617 L134.842,166.269 L137.09,164.898 L140.482,162.799 L145.05,159.922 L149.656,156.97 L156.584,152.468 L163.496,147.893 L168.063,144.874 L172.579,141.87 L177.03,138.922 L180.309,136.748 L182.463,135.333 L184.598,133.94 L186.705,132.563 L188.784,131.219 L190.832,129.91 L192.847,128.634 L194.827,127.388 L196.77,126.185 L198.674,125.028 L200.537,123.913 L202.359,122.839 L204.134,121.817 L205.862,120.851 L207.541,119.943 L209.17,119.084 L210.746,118.284 L212.266,117.549 L213.728,116.88 L215.129,116.281 L216.469,115.751 L217.746,115.286 L218.957,114.895 L220.1,114.579 L220.609,114.457 L220.609,114.457 C222.074,114.192 223.885,112.654 224.653,111.021 C225.421,109.388 224.856,108.279 223.391,108.543 L222.698,108.638 L221.339,108.875 L219.921,109.189 L218.445,109.576 L216.913,110.041 L215.326,110.575 L213.69,111.173 L212.003,111.833 L210.268,112.552 L208.488,113.332 L206.662,114.175 L204.793,115.071 L202.885,116.016 L200.939,117.007 L198.954,118.054 L196.935,119.148 L194.884,120.281 L192.801,121.453 L190.69,122.669 L188.552,123.925 L186.39,125.211 L184.204,126.526 L181.998,127.881 L179.766,129.267 L176.394,131.38 L171.862,134.286 L167.29,137.256 L162.696,140.294 L155.804,144.878 L148.943,149.505 L144.42,152.56 L139.946,155.58 L136.633,157.81 L134.454,159.272 L132.297,160.707 L130.164,162.122 L128.058,163.514 L125.98,164.872 L123.932,166.194 L121.914,167.493 L119.931,168.752 L117.983,169.967 L116.072,171.14 L114.2,172.276 L112.368,173.362 L110.58,174.394 L108.836,175.373 L107.136,176.306 L105.486,177.179 L103.886,177.99 L102.339,178.736 L100.844,179.418 L99.405,180.037 L97.999,180.591 L97.283,180.851 C96.124,181.2 94.834,182.446 94.402,183.632 C93.969,184.819 94.558,185.498 95.717,185.149 L95.717,185.149" fill="#000000"/>
    <path d="M171.854,101.374 L171.415,107.082 L170.462,118.453 L169.501,129.74 L168.531,140.965 L167.569,152.136 L166.631,163.257 L165.313,179.855 L163.844,201.817 L162.921,218.237 L162.503,229.124 L162.239,239.969 L162.146,250.775 L162.246,261.537 L162.46,269.585 L162.672,274.938 L162.798,277.615 L162.798,277.615 C162.794,279.915 165.119,280.386 167.992,278.666 C170.865,276.946 173.197,273.686 173.202,271.385 L173.338,268.589 L173.626,262.997 L174.09,254.629 L174.745,243.509 L175.429,232.437 L176.121,221.407 L176.803,210.422 L177.709,194.039 L178.81,172.266 L179.349,156.062 L179.541,145.314 L179.576,134.614 L179.434,123.964 L179.091,113.372 L178.506,102.861 L178.146,97.626 C178.146,97.626 178.146,97.626 178.146,97.626 C178.156,96.231 176.755,95.938 175.017,96.973 C173.28,98.008 171.864,99.978 171.854,101.374 L171.854,101.374" fill="#000000"/>
    <path d="M152.379,175.835 L150.685,177.325 L147.321,180.418 L144.017,183.619 L140.771,186.888 L137.584,190.222 L134.443,193.606 L131.353,197.041 L128.315,200.523 L125.316,204.044 L122.357,207.599 L119.438,211.189 L116.565,214.81 L113.724,218.456 L110.912,222.122 L106.755,227.643 L104.012,231.365 L104.012,231.365 C104.007,231.371 104.003,231.377 103.999,231.383 L103.999,231.383 L101.74,234.458 L97.219,240.628 L93.837,245.341 L91.579,248.548 L89.36,251.787 L87.165,255.075 L86.056,256.774 L86.056,256.774 C86.046,256.791 86.035,256.808 86.025,256.825 L86.025,256.825 L85.143,258.197 L83.408,260.931 L81.72,263.628 L80.091,266.29 L78.523,268.925 L77,271.546 L75.534,274.163 L74.122,276.783 L72.751,279.417 L71.444,282.071 L70.192,284.753 L68.979,287.474 L67.821,290.239 L66.7,293.06 L65.607,295.946 L64.579,298.9 L64.072,300.431 L64.079,300.413 L64.019,300.594 L63.929,300.863 L63.826,301.153 L63.695,301.499 L63.45,302.118 L63.077,303.044 L62.684,304.058 L62.263,305.144 L61.836,306.274 L61.422,307.424 L61.109,308.559 L60.892,309.434 L60.759,310.034 L60.656,310.6 L60.577,311.162 L60.525,311.725 L60.512,312.288 L60.551,312.849 L60.757,313.334 L61.083,313.76 L61.519,314.117 L62.094,314.354 L62.81,314.417 L63.632,314.276 L64.668,313.569 L65.231,313.113 L65.231,313.113 C65.275,313.099 65.32,313.084 65.366,313.068 L65.366,313.068 L65.566,312.781 L66.094,312.155 L66.521,311.953 L66.951,311.717 L67.382,311.452 L67.813,311.161 L68.438,310.7 L69.295,310.007 L70.186,309.221 L71.094,308.366 L72.019,307.448 L72.965,306.471 L73.931,305.441 L74.915,304.364 L75.913,303.245 L76.922,302.09 L77.94,300.908 L79.469,299.103 L81.511,296.661 L83.52,294.229 L84.982,292.452 L85.925,291.309 L86.836,290.206 L87.713,289.152 L88.549,288.155 L89.338,287.226 L90.072,286.373 L90.742,285.611 L91.341,284.952 L91.853,284.414 L92.144,284.128 L92.279,284.009 L92.393,283.914 L92.453,283.876 L92.402,283.934 L92.347,283.984 L92.672,283.711 L93.352,283.134 L94.052,282.532 L94.771,281.914 L95.881,280.955 L97.425,279.615 L99.038,278.202 L100.714,276.721 L102.455,275.179 L104.258,273.578 L106.112,271.914 L108.025,270.197 L109.996,268.433 L112.012,266.613 L114.079,264.749 L116.195,262.848 L118.355,260.907 L120.556,258.927 L122.799,256.919 L125.083,254.884 L127.402,252.823 L129.753,250.739 L132.139,248.64 L134.555,246.528 L138.241,243.332 L143.238,239.052 L148.311,234.793 L153.442,230.565 L158.621,226.401 L163.827,222.332 L169.041,218.375 L172.923,215.518 L175.493,213.674 L178.077,211.858 L180.65,210.091 L183.208,208.376 L185.75,206.714 L188.273,205.111 L190.776,203.57 L193.254,202.094 L195.707,200.686 L198.132,199.35 L200.526,198.088 L202.888,196.903 L205.213,195.799 L207.504,194.775 L209.754,193.837 L211.963,192.987 L214.131,192.227 L216.254,191.56 L218.331,190.989 L219.835,190.63 L220.813,190.422 L221.804,190.235 L222.784,190.072 L223.751,189.935 L224.707,189.824 L225.651,189.74 L226.582,189.682 L227.5,189.651 L228.406,189.648 L229.299,189.672 L230.18,189.725 L231.048,189.806 L231.903,189.916 L232.745,190.056 L233.574,190.226 L233.963,190.317 L233.831,190.281 L233.899,190.302 L233.641,190.204 L233.211,189.849 L232.896,189.112 L232.937,187.978 L233.363,186.736 L233.934,185.724 L234.432,185.042 L234.782,184.633 L234.987,184.417 L235.068,184.335 L235.048,184.348 L234.946,184.428 L234.776,184.559 L234.548,184.73 L234.27,184.934 L233.753,185.303 L232.955,185.854 L232.059,186.454 L231.065,187.103 L229.992,187.79 L228.855,188.506 L227.05,189.622 L224.558,191.132 L222.688,192.247 L221.455,192.974 L220.24,193.687 L219.061,194.374 L217.93,195.03 L216.858,195.649 L215.856,196.224 L214.936,196.749 L214.307,197.108 L213.918,197.329 L213.554,197.535 L213.218,197.726 L212.91,197.901 L212.632,198.06 L212.385,198.2 L212.167,198.324 L211.979,198.432 L211.816,198.526 L211.666,198.614 L211.48,198.725 L211.123,198.952 L211.123,198.952 C210.992,199.039 210.861,199.13 210.732,199.225 L210.732,199.225 L209.685,199.992 L207.528,201.601 L204.309,204.068 L200.06,207.439 L195.847,210.904 L191.695,214.445 L187.602,218.055 L183.568,221.727 L179.588,225.448 L175.665,229.215 L171.796,233.021 L167.98,236.86 L164.221,240.726 L160.512,244.611 L156.858,248.51 L153.258,252.415 L149.705,256.316 L147.944,258.278 L147.944,258.278 C147.936,258.287 147.928,258.296 147.92,258.305 L147.92,258.305 L147.578,258.688 L146.876,259.483 L146.189,260.272 L145.53,261.04 L144.898,261.788 L144.292,262.518 L143.712,263.23 L143.158,263.925 L142.628,264.605 L142.123,265.269 L141.641,265.921 L141.182,266.56 L140.745,267.189 L140.331,267.807 L139.94,268.418 L139.572,269.023 L139.226,269.622 L138.903,270.217 L138.603,270.81 L138.33,271.399 L138.085,271.988 L137.87,272.572 L137.691,273.153 L137.55,273.725 L137.452,274.284 L137.402,274.827 L137.402,275.343 L137.455,275.829 L137.612,276.424 L137.974,277.111 L138.523,277.675 L139.195,278.062 L139.952,278.295 L140.765,278.405 L141.618,278.415 L142.504,278.347 L143.419,278.215 L144.363,278.03 L145.337,277.798 L146.339,277.524 L147.373,277.212 L148.43,276.88 L149.517,276.517 L150.632,276.126 L151.753,275.78 L152.859,275.558 L153.947,275.487 L155.059,275.407 L156.839,274.949 L159.358,273.95 L161.932,272.859 L164.526,271.712 L167.112,270.54 L169.67,269.359 L172.168,268.219 L173.98,267.393 L175.147,266.871 L176.296,266.37 L177.414,265.887 L178.497,265.429 L179.538,265.004 L180.535,264.615 L181.482,264.263 L182.38,263.942 L183.221,263.664 L184.001,263.43 L184.714,263.241 L185.357,263.098 L185.926,262.998 L186.418,262.942 L186.828,262.927 L186.939,262.924 L186.831,262.904 L186.993,262.922 L187.137,262.941 L187.168,262.942 L187.139,262.92 L187.062,262.856 L186.96,262.727 L186.863,262.511 L186.808,262.202 L186.825,261.817 L186.919,261.397 L187.068,260.998 L187.237,260.662 L187.391,260.417 L187.504,260.27 L187.515,260.284 L187.376,260.481 L187.088,260.821 L186.624,261.309 L186.027,261.905 L185.317,262.569 L184.521,263.279 L183.179,264.362 L179.848,263.502 L177.965,264.556 L176.67,265.618 L175.385,266.756 L174.039,268.067 L172.652,269.614 L171.204,271.431 L169.981,273.202 L169.151,274.605 L168.517,275.877 L167.972,277.191 L167.543,278.52 L167.258,279.819 L167.132,281.049 L167.167,282.175 L167.349,283.175 L167.657,284.041 L168.068,284.777 L168.56,285.396 L169.115,285.912 L169.72,286.341 L170.367,286.696 L171.054,286.99 L171.479,287.141 L171.479,287.141 C171.491,287.145 171.503,287.149 171.515,287.153 L171.515,287.153 L171.86,287.266 L172.471,287.486 L173.083,287.731 L173.73,288.01 L174.404,288.324 L175.102,288.67 L175.823,289.05 L176.56,289.459 L177.71,290.138 L179.278,291.138 L180.862,292.234 L182.483,293.403 L184.156,294.606 L185.823,295.882 L187.464,297.229 L189.094,298.609 L190.687,300.026 L192.212,301.492 L193.654,302.997 L195.097,304.442 L196.557,305.798 L197.893,307.176 L199.488,307.609 L200.269,308.109 L200.773,308.833 L201.237,309.556 L201.661,310.275 L202.043,310.989 L202.382,311.694 L202.676,312.391 L202.842,313.131 L202.965,313.851 L203.044,314.545 L203.081,315.209 L203.077,315.839 L203.036,316.428 L202.962,316.969 L202.862,317.457 L202.743,317.885 L202.613,318.253 L202.482,318.558 L202.344,318.81 L202.202,319.019 L202.055,319.208 L201.885,319.399 L201.668,319.618 L201.376,319.884 L200.987,320.203 L200.468,320.501 L199.786,319.823 L199.61,319.767 L199.881,319.613 L199.676,319.705 L199.67,319.654 L199.718,319.572 L199.677,319.529 L199.391,319.531 L198.864,319.532 L198.226,319.507 L197.443,319.453 L196.533,319.388 L195.523,319.298 L194.448,319.155 L193.324,318.955 L192.168,318.698 L190.993,318.386 L189.81,318.019 L188.617,317.618 L187.431,317.173 L186.269,316.678 L185.142,316.136 L184.059,315.549 L183.029,314.919 L182.056,314.258 L181.15,313.568 L180.327,312.847 L179.594,312.1 L178.96,311.334 L178.575,310.778 L178.36,310.42 L178.153,310.039 L177.976,309.661 L177.828,309.29 L177.709,308.926 L177.619,308.574 L177.557,308.236 L177.519,307.918 L177.503,307.623 L177.51,307.352 L177.536,307.111 L177.577,306.905 L177.627,306.733 L177.682,306.603 L177.737,306.513 L177.717,306.629 L177.644,306.852 L177.963,305.973 L178.559,304.455 L179.167,303.041 L179.81,301.653 L180.487,300.291 L181.187,298.954 L181.919,297.64 L182.682,296.347 L183.477,295.073 L184.302,293.818 L185.159,292.578 L186.045,291.356 L186.963,290.146 L187.905,288.948 L188.877,287.76 L189.881,286.583 L190.918,285.412 L191.985,284.253 L193.086,283.099 L194.219,281.955 L195.385,280.816 L196.581,279.687 L197.81,278.561 L199.068,277.442 L200.359,276.329 L201.678,275.227 L203.028,274.133 L204.406,273.041 L205.806,271.948 L207.23,270.842 L208.683,269.744 L210.161,268.636 L211.663,267.526 L213.193,266.424 L215.581,264.724 L218.83,262.497 L222.12,260.318 L225.495,258.162 L228.943,256.044 L232.458,253.966 L236.025,251.952 L239.638,249.978 L243.281,248.09 L246.945,246.273 L250.622,244.529 L253.365,243.283 L255.189,242.478 L257.026,241.691 L258.859,240.924 L260.686,240.181 L262.509,239.459 L264.326,238.755 L266.14,238.063 L267.044,237.709 L267.044,237.709 C268.173,237.454 269.516,236.258 270.044,235.038 C270.572,233.818 270.085,233.036 268.956,233.291 L268.146,233.325 L266.504,233.451 L264.83,233.625 L263.128,233.84 L261.402,234.091 L259.653,234.376 L257.882,234.696 L256.074,235.056 L253.332,235.662 L249.634,236.578 L245.872,237.636 L242.054,238.836 L238.191,240.156 L234.285,241.639 L230.348,243.258 L226.384,245.031 L222.404,246.956 L218.416,249.046 L214.481,251.269 L211.555,253.024 L209.582,254.281 L207.614,255.572 L205.658,256.908 L203.716,258.296 L201.786,259.718 L199.876,261.194 L197.988,262.712 L196.12,264.268 L194.272,265.855 L192.447,267.471 L190.645,269.119 L188.87,270.798 L187.122,272.511 L185.405,274.252 L183.719,276.023 L182.068,277.821 L180.45,279.649 L178.874,281.501 L177.337,283.38 L175.844,285.282 L174.398,287.208 L173.008,289.155 L171.669,291.121 L170.384,293.102 L169.155,295.099 L167.985,297.107 L166.875,299.127 L165.826,301.156 L164.842,303.19 L163.933,305.228 L163.091,307.268 L162.316,309.311 L161.635,311.276 L161.356,312.148 L161.356,312.148 C161.331,312.223 161.306,312.297 161.283,312.371 L161.283,312.371 L161.065,313.111 L160.79,314.252 L160.6,315.337 L160.488,316.361 L160.447,317.331 L160.469,318.248 L160.549,319.115 L160.681,319.937 L160.862,320.718 L161.089,321.457 L161.355,322.162 L161.658,322.835 L161.996,323.478 L162.366,324.094 L162.765,324.684 L163.213,325.276 L163.925,326.102 L164.932,327.099 L166.031,328.022 L167.21,328.876 L168.463,329.663 L169.786,330.379 L171.173,331.025 L172.609,331.608 L174.089,332.13 L175.603,332.59 L177.145,332.989 L178.715,333.319 L180.312,333.567 L181.918,333.752 L183.526,333.873 L185.133,333.928 L186.737,333.915 L188.338,333.829 L189.954,333.64 L191.595,333.329 L193.261,332.914 L194.901,332.39 L196.142,331.908 L197.065,331.499 L198.035,331.015 L198.904,330.527 L199.119,330.387 L199.119,330.387 C199.209,330.337 199.299,330.286 199.39,330.233 L199.39,330.233 L200.327,329.525 L201.754,327.508 L203.19,326.426 L204.606,325.325 L205.97,324.132 L207.266,322.856 L208.467,321.519 L209.553,320.145 L210.509,318.761 L211.339,317.391 L212.045,316.046 L212.629,314.739 L213.101,313.469 L213.473,312.235 L213.756,311.035 L213.959,309.865 L214.089,308.719 L214.154,307.593 L214.159,306.484 L214.107,305.39 L214.003,304.306 L213.931,303.172 L213.815,302.041 L213.656,300.914 L213.454,299.791 L213.212,298.671 L212.931,297.554 L212.854,296.216 L213.028,293.904 L212.239,291.649 L211.334,289.419 L210.197,287.339 L208.869,285.394 L207.46,283.499 L205.981,281.661 L204.426,279.903 L202.793,278.246 L201.124,276.666 L199.424,275.174 L197.661,273.825 L195.874,272.594 L194.111,271.474 L192.804,270.706 L191.929,270.222 L191.061,269.768 L190.198,269.342 L189.341,268.947 L188.491,268.583 L187.644,268.25 L186.834,267.962 L186.485,267.847 L186.521,267.859 L186.519,267.866 L186.43,267.846 L186.404,267.854 L186.436,267.904 L186.513,268.012 L186.619,268.193 L186.735,268.463 L186.834,268.836 L186.889,269.317 L186.877,269.9 L186.782,270.564 L186.601,271.275 L186.345,271.993 L186.04,272.677 L185.71,273.301 L185.245,274.037 L184.675,274.778 L184.279,275.17 L184.126,275.243 L184.172,275.038 L184.411,274.629 L184.747,274.122 L185.45,272.8 L185.694,268.782 L187.017,267.543 L187.94,266.743 L188.874,265.94 L189.82,265.121 L190.771,264.255 L191.746,263.31 L192.689,262.301 L193.379,261.47 L193.875,260.787 L194.353,260.032 L194.783,259.213 L195.128,258.357 L195.348,257.509 L195.418,256.726 L195.342,256.05 L195.145,255.498 L194.86,255.066 L194.515,254.733 L194.13,254.479 L193.714,254.283 L193.315,254.143 L193.169,254.096 L193.169,254.096 C193.134,254.088 193.098,254.082 193.061,254.076 L193.061,254.076 L192.611,253.986 L191.801,253.877 L190.946,253.834 L190.049,253.848 L189.113,253.917 L188.138,254.03 L187.13,254.185 L186.087,254.377 L185.012,254.603 L183.903,254.87 L182.766,255.165 L181.603,255.487 L180.417,255.832 L179.208,256.204 L177.977,256.605 L176.718,257.027 L174.817,257.682 L172.259,258.619 L169.686,259.593 L167.114,260.613 L164.573,261.656 L162.084,262.715 L159.661,263.783 L157.842,264.8 L156.618,265.656 L155.427,266.479 L154.319,267.104 L153.295,267.551 L152.341,267.896 L151.441,268.207 L150.601,268.482 L149.831,268.703 L149.129,268.886 L148.507,269.028 L147.966,269.13 L147.516,269.192 L147.162,269.221 L146.905,269.228 L146.746,269.225 L146.674,269.234 L146.667,269.279 L146.691,269.38 L146.691,269.477 L146.687,269.543 L146.685,269.634 L146.675,269.721 L146.659,269.799 L146.641,269.857 L146.626,269.893 L146.619,269.899 L146.625,269.872 L146.649,269.811 L146.693,269.712 L146.762,269.577 L146.858,269.403 L146.982,269.193 L147.137,268.947 L147.321,268.666 L147.537,268.349 L147.784,267.999 L148.064,267.616 L148.377,267.201 L148.724,266.754 L149.104,266.276 L149.518,265.767 L149.966,265.228 L150.447,264.66 L150.963,264.062 L151.514,263.435 L152.098,262.779 L152.73,262.078 L153.08,261.695 L153.056,261.722 L154.779,259.842 L158.249,256.057 L161.748,252.286 L165.271,248.531 L168.819,244.799 L172.399,241.099 L176.007,237.435 L179.649,233.817 L183.326,230.251 L187.038,226.744 L190.79,223.306 L194.58,219.94 L198.409,216.651 L202.278,213.446 L206.215,210.321 L209.204,208.037 L211.218,206.541 L212.268,205.775 L211.877,206.048 L211.549,206.255 L211.482,206.295 L211.53,206.267 L211.642,206.203 L211.801,206.112 L212.002,205.997 L212.242,205.862 L212.515,205.707 L212.822,205.534 L213.16,205.343 L213.527,205.135 L213.924,204.911 L214.568,204.546 L215.509,204.011 L216.536,203.429 L217.638,202.802 L218.803,202.137 L220.021,201.437 L221.281,200.71 L222.58,199.954 L224.564,198.791 L227.203,197.219 L229.142,196.041 L230.41,195.256 L231.643,194.479 L232.835,193.711 L233.983,192.953 L235.063,192.217 L235.833,191.673 L236.35,191.296 L236.864,190.911 L237.379,190.51 L237.903,190.086 L238.447,189.621 L239.027,189.092 L239.663,188.46 L240.375,187.667 L241.162,186.634 L241.945,185.307 L242.506,183.786 L242.599,182.411 L242.254,181.473 L241.705,180.957 L241.239,180.741 L241.169,180.719 L241.169,180.719 C241.126,180.706 241.082,180.694 241.037,180.683 L241.037,180.683 L240.527,180.559 L239.533,180.347 L238.522,180.171 L237.494,180.03 L236.449,179.924 L235.388,179.852 L234.31,179.815 L233.218,179.811 L232.11,179.839 L230.987,179.901 L229.852,179.994 L228.702,180.119 L227.539,180.275 L226.364,180.461 L225.176,180.678 L223.952,180.929 L222.108,181.359 L219.645,182.022 L217.145,182.792 L214.609,183.665 L212.039,184.637 L209.44,185.702 L206.814,186.858 L204.163,188.102 L201.489,189.428 L198.796,190.831 L196.085,192.309 L193.359,193.856 L190.618,195.47 L187.867,197.146 L185.106,198.881 L182.338,200.672 L179.565,202.518 L176.789,204.412 L174.012,206.352 L171.213,208.349 L167.037,211.404 L161.519,215.571 L156.042,219.851 L150.623,224.208 L145.276,228.619 L140.026,233.061 L134.894,237.49 L131.129,240.799 L128.657,242.999 L126.222,245.182 L123.826,247.345 L121.473,249.49 L119.169,251.612 L116.909,253.704 L114.696,255.762 L112.539,257.79 L110.437,259.781 L108.389,261.728 L106.399,263.628 L104.476,265.488 L102.614,267.292 L100.814,269.037 L99.089,270.731 L97.433,272.359 L95.846,273.916 L94.338,275.406 L92.904,276.825 L91.878,277.836 L91.22,278.482 L90.582,279.105 L89.962,279.713 L89.653,280.016 L89.653,280.016 C89.635,280.032 89.616,280.049 89.598,280.066 L89.598,280.066 L89.335,280.319 L88.95,280.713 L88.588,281.103 L88.216,281.52 L87.697,282.132 L87.034,282.954 L86.357,283.828 L85.66,284.757 L84.94,285.737 L84.199,286.77 L83.436,287.849 L82.651,288.968 L81.846,290.123 L81.024,291.305 L79.769,293.114 L78.062,295.563 L76.336,298.01 L75.04,299.805 L74.191,300.963 L73.354,302.084 L72.534,303.159 L71.737,304.182 L70.965,305.143 L70.225,306.031 L69.523,306.84 L68.87,307.557 L68.274,308.174 L67.726,308.699 L67.356,309.022 L67.153,309.189 L66.974,309.327 L66.82,309.438 L66.69,309.525 L66.688,309.128 L66.634,308.932 L66.769,308.887 L66.979,308.538 L67.389,307.952 L67.687,307.816 L67.978,307.774 L68.22,307.799 L68.412,307.846 L68.575,307.869 L68.698,307.865 L68.726,307.855 L68.77,307.771 L68.84,307.618 L68.939,307.403 L69.069,307.132 L69.218,306.845 L69.502,306.307 L69.982,305.434 L70.468,304.48 L71.005,303.455 L71.577,302.384 L72.163,301.288 L72.717,300.198 L73.11,299.395 L73.368,298.848 L73.618,298.294 L73.841,297.777 L73.921,297.587 L73.921,297.587 C73.923,297.581 73.925,297.575 73.928,297.569 L73.928,297.569 L74.526,296.153 L75.727,293.356 L76.899,290.668 L78.083,288.068 L79.278,285.541 L80.473,283.076 L81.69,280.657 L82.922,278.269 L84.164,275.898 L85.45,273.527 L86.769,271.144 L88.128,268.734 L89.546,266.282 L91.012,263.779 L92.538,261.209 L94.139,258.552 L94.975,257.175 L94.944,257.226 L95.853,255.73 L97.758,252.67 L99.717,249.61 L101.698,246.559 L104.759,241.941 L108.916,235.728 L111.001,232.617 L110.988,232.635 L113.432,228.998 L117.128,223.545 L119.609,219.947 L122.114,216.375 L124.647,212.83 L127.199,209.308 L129.782,205.812 L132.405,202.346 L135.072,198.91 L137.778,195.502 L140.531,192.122 L143.34,188.775 L146.199,185.45 L149.117,182.15 L152.096,178.839 L153.621,177.165 C154.338,176.461 154.64,175.592 154.297,175.225 C153.954,174.858 153.095,175.131 152.379,175.835 L152.379,175.835" fill="#000000"/>
    <path d="M449,112.053 L449.064,112.299 L449.255,112.631 L449.362,112.964 L449.397,113.304 L449.387,113.632 L449.332,113.955 L449.226,114.286 L449.071,114.628 L448.871,114.987 L448.632,115.367 L448.353,115.775 L448.021,116.215 L447.636,116.688 L447.198,117.192 L446.719,117.73 L446.191,118.299 L445.615,118.896 L444.993,119.52 L444.328,120.168 L443.621,120.84 L442.878,121.533 L442.106,122.253 L441.3,122.994 L440.464,123.754 L439.154,124.931 L437.327,126.551 L435.426,128.224 L433.47,129.957 L431.477,131.742 L429.459,133.568 L427.435,135.431 L425.421,137.328 L423.436,139.258 L421.499,141.222 L419.621,143.214 L417.819,145.236 L416.502,146.806 L415.645,147.882 L414.843,148.935 L414.073,149.999 L413.34,151.073 L412.648,152.156 L412.002,153.249 L411.409,154.347 L410.873,155.45 L410.4,156.552 L409.997,157.65 L409.67,158.737 L409.425,159.807 L409.267,160.853 L409.199,161.87 L409.224,162.851 L409.278,163.382 L409.278,163.382 C409.282,163.412 409.287,163.442 409.292,163.472 L409.292,163.472 L409.321,163.671 L409.419,164.158 L409.555,164.652 L409.72,165.12 L410.006,165.746 L410.476,166.509 L411.046,167.203 L411.693,167.81 L412.403,168.339 L413.167,168.799 L413.974,169.199 L414.818,169.546 L415.689,169.847 L416.582,170.109 L417.931,170.435 L419.76,170.789 L421.573,171.087 L423.299,171.359 L424.497,171.567 L425.227,171.712 L425.911,171.868 L426.532,172.037 L427.083,172.219 L427.556,172.414 L427.944,172.621 L428.242,172.833 L428.445,173.043 L428.556,173.235 L428.586,173.393 L428.548,173.427 L428.513,173.395 L428.494,173.331 L428.483,173.206 L428.495,173.612 L428.466,174.233 L428.392,174.746 L428.285,175.211 L428.154,175.631 L428.006,176.01 L427.844,176.356 L427.668,176.681 L427.477,176.997 L427.268,177.315 L426.852,177.903 L426.211,178.712 L425.483,179.556 L424.605,180.534 L423.584,181.648 L422.437,182.903 L421.185,184.31 L419.86,185.883 L418.494,187.65 L417.421,189.198 L416.705,190.349 L416.086,191.453 L415.521,192.59 L415.213,193.285 L415.213,193.285 C415.141,193.458 415.076,193.629 415.019,193.798 L415.019,193.798 L414.98,193.905 L414.68,195.2 L414.703,196.5 L415.01,197.375 L415.431,197.943 L415.879,198.322 L416.323,198.59 L416.757,198.791 L417.366,199.015 L418.195,199.263 L419.028,199.489 L419.83,199.715 L420.587,199.962 L421.276,200.242 L421.709,200.467 L421.948,200.619 L422.185,200.791 L422.39,200.971 L422.562,201.158 L422.699,201.348 L422.804,201.54 L422.876,201.733 L422.918,201.924 L422.934,202.113 L422.925,202.299 L422.896,202.488 L422.877,202.482 L422.882,202.395 L422.819,203.069 L422.707,204.415 L422.622,205.714 L422.562,206.954 L422.528,208.141 L422.518,209.278 L422.532,210.368 L422.571,211.415 L422.635,212.421 L422.722,213.392 L422.833,214.328 L422.967,215.234 L423.124,216.111 L423.302,216.963 L423.601,218.183 L424.067,219.763 L424.606,221.325 L425.203,222.881 L425.69,224.069 L426.029,224.875 L426.378,225.696 L426.739,226.538 L427.111,227.411 L427.494,228.316 L427.887,229.258 L428.292,230.243 L428.707,231.276 L429.133,232.359 L429.347,232.916 L429.342,232.903 L429.527,233.392 L429.864,234.325 L430.17,235.22 L430.451,236.092 L430.708,236.937 L430.945,237.759 L431.162,238.557 L431.363,239.332 L431.547,240.085 L431.718,240.818 L431.954,241.886 L432.235,243.239 L432.492,244.518 L432.743,245.739 L433.003,246.912 L433.29,248.043 L433.627,249.138 L434.033,250.195 L434.532,251.21 L435.002,251.966 L435.369,252.459 L435.751,252.9 L436.168,253.318 L436.621,253.71 L437.11,254.075 L437.637,254.413 L438.197,254.721 L438.795,255.002 L439.427,255.253 L440.092,255.477 L440.794,255.676 L441.529,255.849 L442.299,256 L443.104,256.128 L443.949,256.235 L444.831,256.322 L445.755,256.391 L446.72,256.442 L447.732,256.475 L448.788,256.493 L449.894,256.495 L451.051,256.482 L452.261,256.453 L453.528,256.411 L454.852,256.354 L456.236,256.283 L457.684,256.197 L459.196,256.097 L460.777,255.981 L462.437,255.831 L464.256,255.505 L466.181,255.103 L468.204,254.646 L470.34,254.105 L472.557,253.549 L473.698,253.264 L473.698,253.264 C476.655,252.949 480.53,249.889 482.354,246.429 C484.178,242.969 483.259,240.42 480.302,240.736 C480.302,240.736 480.302,240.736 480.302,240.736 L479.356,240.674 L477.523,240.545 L475.772,240.406 L474.068,240.324 L472.422,240.272 L470.823,240.269 L469.214,240.416 L467.67,240.569 L466.2,240.71 L464.803,240.838 L463.477,240.951 L462.221,241.051 L461.036,241.135 L459.918,241.204 L458.866,241.258 L457.88,241.297 L456.957,241.32 L456.098,241.328 L455.299,241.322 L454.56,241.301 L453.878,241.267 L453.252,241.22 L452.679,241.161 L452.159,241.09 L451.687,241.008 L451.261,240.917 L450.877,240.817 L450.531,240.708 L450.222,240.594 L449.941,240.47 L449.688,240.34 L449.457,240.201 L449.244,240.051 L449.047,239.89 L448.862,239.714 L448.707,239.551 L448.469,239.251 L448.145,238.719 L447.84,238.069 L447.548,237.294 L447.262,236.387 L446.974,235.351 L446.672,234.19 L446.345,232.911 L445.981,231.527 L445.675,230.421 L445.45,229.647 L445.208,228.847 L444.947,228.022 L444.663,227.171 L444.357,226.298 L444.025,225.399 L443.668,224.477 L443.282,223.531 L442.87,222.572 L442.658,222.097 L442.658,222.097 C442.656,222.093 442.655,222.088 442.653,222.084 L442.653,222.084 L442.396,221.517 L441.898,220.44 L441.416,219.418 L440.949,218.448 L440.498,217.524 L440.063,216.646 L439.646,215.809 L439.246,215.007 L438.865,214.24 L438.505,213.508 L438.001,212.462 L437.39,211.133 L436.854,209.856 L436.385,208.578 L436.079,207.6 L435.899,206.947 L435.737,206.277 L435.59,205.585 L435.46,204.864 L435.347,204.111 L435.251,203.318 L435.172,202.482 L435.111,201.597 L435.069,200.659 L435.045,199.662 L435.04,198.602 L435.056,197.476 L435.091,196.263 L435.118,195.605 L435.118,195.605 C435.12,195.576 435.122,195.547 435.123,195.518 L435.123,195.518 L435.132,194.926 L435.07,194.011 L434.92,193.184 L434.692,192.443 L434.396,191.784 L434.044,191.201 L433.645,190.689 L433.208,190.241 L432.743,189.851 L432.255,189.512 L431.751,189.218 L431.21,188.952 L430.415,188.629 L429.4,188.306 L428.433,188.061 L427.555,187.872 L426.812,187.72 L426.233,187.595 L425.932,187.519 L425.845,187.503 L425.845,187.533 L425.933,187.651 L426.086,187.929 L426.226,188.481 L426.19,189.421 L425.946,190.313 L425.981,190.202 L425.787,190.715 L425.765,190.725 L425.838,190.503 L425.938,190.26 L426.015,190.074 L426.256,189.636 L426.836,188.781 L427.625,187.751 L428.603,186.562 L429.74,185.22 L431.004,183.725 L432.353,182.068 L433.74,180.243 L435.042,178.337 L435.937,176.852 L436.519,175.768 L437.045,174.664 L437.505,173.55 L437.89,172.438 L438.193,171.337 L438.409,170.252 L438.541,169.189 L438.588,168.149 L438.555,167.189 L438.517,166.794 L438.517,166.794 C438.515,166.752 438.511,166.71 438.506,166.669 L438.506,166.669 L438.459,166.344 L438.329,165.81 L438.056,165.145 L437.609,164.465 L437.068,163.918 L436.457,163.479 L435.79,163.124 L435.075,162.837 L434.321,162.603 L433.533,162.413 L432.714,162.256 L431.871,162.127 L430.999,162.017 L429.682,161.881 L427.911,161.723 L426.154,161.558 L424.442,161.352 L423.215,161.151 L422.451,160.995 L421.729,160.815 L421.056,160.608 L420.436,160.375 L419.874,160.112 L419.372,159.822 L418.933,159.503 L418.558,159.156 L418.233,158.756 L418.031,158.424 L417.924,158.21 L417.833,157.987 L417.751,157.72 L417.708,157.528 L417.722,157.618 L417.678,157.446 L417.611,156.99 L417.588,156.531 L417.607,156.063 L417.666,155.583 L417.765,155.087 L417.906,154.569 L418.09,154.025 L418.318,153.453 L418.593,152.85 L418.914,152.215 L419.282,151.547 L419.698,150.85 L420.163,150.121 L420.674,149.365 L421.205,148.614 L422.1,147.418 L423.466,145.711 L424.97,143.941 L426.591,142.124 L428.302,140.267 L430.083,138.386 L431.917,136.495 L433.782,134.604 L435.657,132.724 L437.517,130.856 L439.344,129.009 L441.115,127.204 L442.398,125.88 L443.231,125.011 L444.041,124.154 L444.827,123.309 L445.578,122.472 L446.298,121.65 L446.988,120.843 L447.644,120.053 L448.264,119.277 L448.846,118.518 L449.385,117.773 L449.87,117.042 L450.306,116.328 L450.691,115.632 L451.017,114.957 L451.27,114.308 L451.44,113.695 L451.533,113.123 L451.544,112.599 L451.473,112.129 L451.307,111.726 L451.043,111.402 L450.704,111.137 L450.294,110.939 L450,110.947 C450,110.947 450,110.947 450,110.947 C449.825,110.831 449.46,110.985 449.184,111.29 C448.908,111.595 448.826,111.937 449,112.053 L449,112.053" fill="#000000"/>
    <path d="M400.312,341.068 L400.27,342.497 L400.231,345.294 L400.26,347.996 L400.326,350.618 L400.436,353.157 L400.607,355.602 L400.812,357.97 L401.049,360.264 L401.323,362.481 L401.646,364.614 L402.001,366.674 L402.386,368.663 L402.802,370.581 L403.249,372.43 L403.733,374.204 L404.251,375.907 L404.797,377.543 L405.372,379.112 L405.975,380.617 L406.606,382.057 L407.265,383.433 L407.951,384.746 L408.671,385.991 L409.418,387.175 L410.19,388.298 L410.989,389.362 L411.813,390.366 L412.663,391.312 L413.537,392.2 L414.437,393.031 L415.361,393.806 L416.309,394.525 L417.282,395.188 L418.282,395.795 L419.304,396.347 L420.35,396.847 L421.417,397.294 L422.508,397.689 L423.619,398.033 L424.753,398.327 L425.905,398.572 L427.079,398.767 L428.273,398.914 L429.485,399.013 L430.717,399.066 L431.966,399.071 L433.235,399.028 L434.52,398.941 L435.82,398.811 L437.136,398.638 L438.465,398.424 L439.809,398.168 L441.166,397.873 L442.534,397.54 L443.914,397.168 L445.305,396.76 L446.705,396.317 L448.117,395.837 L449.536,395.322 L450.964,394.775 L453.092,393.907 L455.964,392.645 L458.884,391.261 L461.824,389.775 L464.776,388.196 L467.741,386.531 L470.713,384.786 L473.688,382.966 L476.664,381.084 L479.638,379.146 L482.608,377.161 L485.57,375.135 L489.968,372.053 L495.795,367.857 L501.557,363.605 L507.206,359.37 L511.357,356.241 L514.07,354.196 L516.737,352.192 L519.357,350.233 L521.925,348.326 L524.437,346.48 L526.889,344.699 L529.277,342.992 L531.596,341.366 L533.838,339.833 L536.002,338.396 L537.544,337.402 L538.532,336.781 L539.52,336.172 L540.484,335.593 L541.423,335.044 L542.335,334.525 L542.746,334.297 L542.663,334.344 L543.171,334.066 L544.091,333.581 L545.027,333.109 L546.026,332.624 L547.083,332.13 L548.195,331.629 L549.36,331.123 L550.573,330.614 L551.831,330.104 L553.133,329.595 L554.474,329.088 L555.855,328.584 L557.272,328.086 L558.721,327.594 L560.202,327.11 L561.712,326.636 L564.048,325.936 L567.232,325.068 L570.471,324.273 L573.768,323.558 L577.111,322.923 L580.486,322.374 L583.877,321.918 L587.273,321.559 L590.655,321.308 L593.153,321.196 L594.799,321.158 L596.457,321.149 L598.102,321.171 L599.732,321.225 L601.347,321.312 L602.944,321.433 L604.521,321.589 L606.077,321.78 L607.61,322.007 L609.118,322.271 L610.6,322.573 L612.056,322.915 L613.479,323.295 L614.874,323.716 L616.233,324.177 L617.562,324.679 L618.853,325.223 L620.107,325.81 L621.324,326.441 L622.499,327.117 L623.632,327.838 L624.722,328.604 L625.768,329.419 L626.767,330.281 L627.719,331.19 L628.625,332.147 L629.482,333.153 L630.286,334.209 L631.039,335.318 L631.372,335.859 L631.331,335.796 L631.623,336.29 L632.108,337.201 L632.525,338.098 L632.897,339.011 L633.23,339.942 L633.523,340.891 L633.778,341.858 L633.997,342.842 L634.185,343.841 L634.344,344.854 L634.473,345.883 L634.574,346.928 L634.691,348.548 L634.772,350.735 L634.815,352.913 L634.808,355.129 L634.768,357.379 L634.696,359.658 L634.633,361.945 L634.58,364.241 L634.585,366.518 L634.668,368.762 L634.759,369.899 L634.759,369.899 C634.728,373.559 638.392,374.333 642.943,371.627 C647.495,368.921 651.21,363.76 651.241,360.1 L651.35,359.07 L651.561,356.875 L651.787,354.592 L652.008,352.23 L652.236,349.785 L652.431,347.28 L652.597,344.716 L652.697,342.113 L652.709,339.487 L652.583,336.909 L652.407,334.994 L652.237,333.707 L652.03,332.426 L651.782,331.155 L651.489,329.898 L651.147,328.656 L650.756,327.431 L650.313,326.225 L649.817,325.041 L649.261,323.881 L648.645,322.75 L647.989,321.681 L647.669,321.204 L647.669,321.204 C647.655,321.183 647.642,321.162 647.627,321.141 L647.627,321.141 L647.127,320.436 L646.124,319.145 L645.062,317.921 L643.944,316.766 L642.769,315.677 L641.538,314.657 L640.258,313.7 L638.929,312.805 L637.553,311.972 L636.133,311.198 L634.67,310.483 L633.169,309.825 L631.628,309.223 L630.05,308.674 L628.439,308.181 L626.793,307.739 L625.118,307.349 L623.412,307.008 L621.682,306.714 L619.926,306.467 L618.147,306.265 L616.346,306.107 L614.526,305.992 L612.688,305.918 L610.835,305.884 L608.967,305.89 L607.087,305.933 L605.196,306.012 L603.296,306.127 L601.366,306.278 L598.475,306.565 L594.64,307.052 L590.809,307.653 L586.991,308.359 L583.203,309.16 L579.457,310.046 L575.767,311.006 L572.148,312.024 L568.631,313.089 L566.062,313.909 L564.364,314.477 L562.694,315.056 L561.05,315.646 L559.435,316.246 L557.849,316.856 L556.294,317.475 L554.77,318.103 L553.279,318.738 L551.822,319.38 L550.399,320.03 L549.01,320.687 L547.657,321.351 L546.338,322.022 L545.053,322.702 L543.851,323.364 L543.337,323.656 L543.337,323.656 C543.309,323.671 543.281,323.687 543.254,323.703 L543.254,323.703 L542.632,324.062 L541.453,324.76 L540.267,325.482 L539.073,326.227 L537.872,326.995 L536.638,327.799 L534.792,329.032 L532.334,330.723 L529.844,332.484 L527.324,334.308 L524.774,336.191 L522.194,338.128 L519.588,340.111 L516.956,342.134 L514.3,344.191 L511.623,346.274 L508.928,348.376 L504.863,351.548 L499.395,355.792 L493.897,360.007 L488.37,364.159 L484.222,367.194 L481.482,369.152 L478.753,371.059 L476.04,372.909 L473.344,374.695 L470.671,376.411 L468.022,378.057 L465.4,379.623 L462.808,381.102 L460.248,382.487 L457.723,383.774 L455.207,384.968 L453.338,385.794 L452.122,386.302 L450.916,386.781 L449.72,387.232 L448.534,387.656 L447.358,388.048 L446.192,388.409 L445.037,388.738 L443.894,389.034 L442.76,389.296 L441.636,389.525 L440.524,389.719 L439.422,389.877 L438.332,389.998 L437.252,390.083 L436.181,390.131 L435.121,390.142 L434.072,390.113 L433.034,390.043 L432.007,389.932 L430.991,389.777 L429.989,389.579 L428.998,389.335 L428.02,389.046 L427.054,388.709 L426.102,388.325 L425.163,387.892 L424.238,387.408 L423.325,386.876 L422.426,386.293 L421.541,385.657 L420.673,384.966 L419.821,384.22 L418.985,383.417 L418.167,382.557 L417.367,381.639 L416.584,380.662 L415.82,379.624 L415.075,378.525 L414.343,377.37 L413.63,376.152 L412.938,374.87 L412.266,373.523 L411.616,372.11 L410.987,370.631 L410.38,369.084 L409.791,367.472 L409.217,365.797 L408.666,364.052 L408.139,362.236 L407.635,360.349 L407.155,358.389 L406.682,356.367 L406.23,354.274 L405.802,352.106 L405.4,349.862 L404.996,347.559 L404.607,345.185 L404.243,342.733 L403.872,340.219 L403.688,338.932 C403.688,338.932 403.688,338.932 403.688,338.932 C403.65,338.209 402.863,338.101 401.931,338.691 C400.999,339.281 400.274,340.345 400.312,341.068 L400.312,341.068" fill="#000000"/>
    <path d="M646.412,146.057 L646.824,146.762 L647.679,148.105 L648.615,149.305 L649.666,150.318 L650.739,151.239 L651.833,152.069 L652.949,152.813 L654.085,153.473 L655.255,154.037 L656.445,154.52 L657.655,154.928 L658.882,155.263 L660.127,155.529 L661.389,155.728 L662.667,155.863 L663.96,155.937 L665.268,155.953 L666.593,155.906 L667.929,155.807 L669.276,155.66 L670.633,155.469 L671.996,155.236 L673.368,154.965 L674.744,154.66 L676.802,154.15 L679.566,153.38 L682.354,152.521 L685.14,151.615 L686.537,151.149 L686.537,151.149 C686.547,151.146 686.557,151.142 686.567,151.139 L686.567,151.139 L687.36,150.869 L689.06,150.261 L690.825,149.596 L692.626,148.888 L694.455,148.145 L696.303,147.369 L699.086,146.171 L702.795,144.538 L705.541,143.315 L707.327,142.52 L709.07,141.747 L710.761,141.004 L712.39,140.298 L713.947,139.637 L714.68,139.332 L714.68,139.332 C714.682,139.331 714.685,139.33 714.687,139.329 L714.687,139.329 L714.747,139.304 L714.945,139.218 L715.173,139.118 L715.425,139.007 L715.704,138.883 L716.012,138.746 L716.35,138.595 L716.717,138.43 L717.113,138.253 L717.538,138.062 L717.988,137.859 L718.466,137.644 L719.227,137.301 L720.322,136.806 L721.501,136.272 L722.752,135.707 L724.067,135.113 L725.434,134.497 L726.844,133.863 L728.289,133.215 L730.498,132.229 L733.468,130.913 L735.664,129.949 L737.092,129.327 L738.487,128.725 L739.834,128.149 L741.122,127.605 L742.338,127.098 L743.473,126.633 L744.513,126.217 L745.213,125.944 L745.637,125.782 L746.037,125.633 L746.401,125.5 L746.727,125.386 L747.01,125.29 L747.245,125.216 L747.425,125.165 L747.54,125.138 L747.577,125.136 L747.512,125.161 L747.307,125.207 L747.002,125.238 L746.732,125.239 L746.788,125.243 L746.5,125.222 L746.054,125.101 L745.63,124.838 L745.242,124.31 L745.067,123.324 L745.257,122.262 L745.518,121.579 L745.669,121.26 L745.675,121.211 L745.544,121.359 L745.296,121.654 L744.949,122.061 L744.516,122.561 L744.008,123.139 L743.434,123.785 L742.803,124.492 L742.12,125.254 L741.392,126.064 L740.623,126.919 L739.82,127.817 L738.985,128.754 L737.694,130.218 L735.911,132.277 L734.07,134.46 L732.21,136.745 L730.361,139.117 L728.552,141.569 L727.612,142.91 L727.612,142.91 C727.573,142.967 727.535,143.024 727.497,143.082 L727.497,143.082 L726.79,144.124 L725.248,146.503 L723.707,149.032 L722.217,151.632 L720.781,154.298 L719.406,157.024 L718.094,159.806 L716.851,162.638 L715.682,165.517 L714.595,168.434 L713.592,171.384 L712.679,174.365 L711.862,177.366 L711.147,180.384 L710.544,183.409 L710.054,186.438 L709.684,189.464 L709.44,192.481 L709.329,195.48 L709.339,197.74 L709.391,199.245 L709.479,200.717 L709.604,202.18 L709.768,203.633 L709.972,205.074 L710.216,206.504 L710.5,207.921 L710.828,209.322 L711.198,210.71 L711.616,212.079 L712.08,213.428 L712.611,214.742 L713.192,216.032 L713.83,217.293 L714.522,218.526 L715.261,219.738 L716.045,220.927 L716.881,222.089 L717.78,223.213 L718.727,224.313 L719.723,225.386 L720.768,226.432 L721.874,227.438 L723.034,228.415 L724.244,229.362 L724.883,229.836 L724.883,229.836 C724.902,229.853 724.922,229.869 724.942,229.885 L724.942,229.885 L725.247,230.092 L726.023,230.551 L726.903,230.952 L727.84,231.257 L728.834,231.464 L729.883,231.571 L730.982,231.576 L732.129,231.479 L733.313,231.281 L734.528,230.986 L735.765,230.6 L737.015,230.129 L738.27,229.581 L739.525,228.964 L740.774,228.284 L742.012,227.555 L743.239,226.779 L744.453,225.96 L745.655,225.103 L746.845,224.222 L748.025,223.313 L749.196,222.385 L750.365,221.442 L751.534,220.494 L753.249,219.057 L755.542,217.057 L757.853,214.973 L760.148,212.842 L762.421,210.678 L764.671,208.496 L767.99,205.252 L771.248,202.041 L773.36,199.965 L775.417,197.967 L777.406,196.058 L778.833,194.71 L779.747,193.859 L780.652,193.033 L781.53,192.245 L782.377,191.498 L783.192,190.794 L783.973,190.137 L784.714,189.531 L785.413,188.978 L786.066,188.481 L786.669,188.043 L787.216,187.667 L787.702,187.356 L788.124,187.108 L788.476,186.924 L788.756,186.799 L788.751,186.818 L788.557,186.913 L789.267,186.593 L790.428,186.117 L791.462,185.744 L792.454,185.433 L793.405,185.18 L794.321,184.982 L795.203,184.837 L796.058,184.739 L796.884,184.688 L797.687,184.685 L798.465,184.73 L799.222,184.821 L799.958,184.959 L800.673,185.142 L801.374,185.363 L802.056,185.629 L802.717,185.941 L803.358,186.298 L803.978,186.699 L804.577,187.144 L805.155,187.631 L805.72,188.153 L806.265,188.711 L806.787,189.31 L807.288,189.947 L807.765,190.622 L808.219,191.332 L808.65,192.076 L809.077,192.837 L809.48,193.629 L809.861,194.451 L810.219,195.3 L810.554,196.176 L810.869,197.074 L811.185,197.976 L811.48,198.9 L811.753,199.842 L812.005,200.801 L812.352,202.283 L812.788,204.26 L813.15,206.255 L813.471,208.249 L813.751,210.231 L813.985,212.194 L814.174,214.126 L814.319,216.013 L814.431,217.837 L814.497,219.593 L814.516,220.846 L814.52,221.646 L814.511,222.436 L814.487,223.201 L814.45,223.94 L814.405,224.647 L814.382,224.973 L814.382,224.973 C813.969,226.378 814.807,227.081 816.253,226.543 C817.699,226.005 819.206,224.431 819.619,223.027 C819.619,223.027 819.619,223.027 819.619,223.027 L819.834,222.539 L820.252,221.567 L820.656,220.565 L821.049,219.531 L821.434,218.467 L821.807,217.361 L822.33,215.667 L822.971,213.347 L823.539,210.954 L824.014,208.511 L824.399,206.028 L824.686,203.523 L824.869,201.01 L824.934,198.51 L824.874,196.042 L824.713,193.617 L824.493,191.852 L824.308,190.681 L824.096,189.523 L823.857,188.382 L823.589,187.258 L823.268,186.17 L822.916,185.106 L822.533,184.065 L822.118,183.048 L821.671,182.058 L821.191,181.097 L820.658,180.182 L820.09,179.299 L819.486,178.452 L818.845,177.642 L818.165,176.87 L817.445,176.139 L816.681,175.456 L815.866,174.828 L815.007,174.248 L814.104,173.721 L813.153,173.248 L812.155,172.833 L811.107,172.479 L810.009,172.189 L808.853,171.975 L807.646,171.832 L806.387,171.764 L805.074,171.773 L803.711,171.862 L802.295,172.036 L800.83,172.295 L799.314,172.648 L797.752,173.089 L796.146,173.621 L794.498,174.244 L792.811,174.958 L791.167,175.725 L790.443,176.087 L790.443,176.087 C790.378,176.118 790.314,176.15 790.249,176.182 L790.249,176.182 L789.566,176.541 L788.451,177.18 L787.357,177.866 L786.283,178.591 L785.227,179.351 L784.186,180.141 L783.157,180.959 L782.136,181.803 L781.122,182.671 L780.11,183.564 L779.102,184.478 L778.093,185.414 L777.083,186.37 L776.073,187.343 L775.059,188.335 L774.028,189.352 L772.488,190.892 L770.441,192.97 L768.382,195.085 L766.313,197.211 L763.209,200.398 L760.1,203.559 L758.052,205.594 L756.032,207.565 L754.054,209.45 L752.128,211.23 L750.231,212.906 L748.844,214.084 L747.967,214.802 L747.111,215.459 L746.28,216.06 L745.48,216.604 L744.716,217.099 L743.991,217.533 L743.308,217.918 L742.668,218.253 L742.071,218.538 L741.52,218.773 L741.01,218.964 L740.539,219.114 L740.103,219.228 L739.695,219.309 L739.308,219.358 L738.935,219.377 L738.572,219.366 L738.21,219.321 L737.847,219.238 L737.482,219.111 L737.113,218.933 L736.743,218.698 L736.328,218.365 L736.058,218.115 L736.118,218.164 L735.641,217.682 L734.697,216.677 L733.803,215.654 L732.954,214.61 L732.141,213.559 L731.375,212.49 L730.655,211.403 L729.979,210.299 L729.332,209.191 L728.723,208.072 L728.157,206.938 L727.633,205.788 L727.14,204.632 L726.675,203.472 L726.243,202.305 L725.826,201.143 L725.443,199.972 L725.09,198.793 L724.773,197.603 L724.488,196.404 L724.237,195.197 L724.02,193.98 L723.834,192.755 L723.68,191.524 L723.558,190.286 L723.467,189.067 L723.386,187.215 L723.376,184.698 L723.477,182.17 L723.686,179.634 L723.996,177.096 L724.402,174.563 L724.896,172.043 L725.475,169.539 L726.135,167.06 L726.868,164.609 L727.671,162.195 L728.535,159.825 L729.454,157.504 L730.424,155.241 L731.437,153.043 L732.488,150.916 L733.569,148.869 L734.671,146.909 L735.837,144.968 L736.503,143.918 L736.388,144.09 L736.926,143.257 L738.221,141.367 L739.626,139.436 L741.108,137.493 L742.64,135.558 L744.198,133.645 L745.357,132.247 L746.114,131.341 L746.861,130.452 L747.595,129.583 L748.312,128.733 L749.01,127.905 L749.688,127.097 L750.345,126.308 L750.981,125.533 L751.598,124.769 L752.199,124.005 L752.79,123.224 L753.382,122.399 L753.986,121.484 L754.604,120.408 L755.192,119.083 L755.563,117.499 L755.415,116.114 L754.941,115.372 L754.408,115.007 L753.81,114.817 L753.327,114.762 L753.268,114.761 L753.268,114.761 C753.18,114.757 753.09,114.758 752.998,114.762 L752.998,114.762 L752.569,114.799 L752.059,114.886 L751.612,114.992 L751.193,115.112 L750.782,115.244 L750.368,115.387 L749.941,115.544 L749.5,115.713 L749.04,115.896 L748.561,116.092 L748.061,116.302 L747.532,116.527 L746.707,116.888 L745.55,117.405 L744.318,117.967 L743.018,118.569 L741.66,119.205 L740.251,119.873 L738.801,120.566 L737.315,121.282 L735.051,122.381 L732.016,123.867 L729.764,124.976 L728.293,125.704 L726.858,126.416 L725.468,127.106 L724.136,127.77 L722.869,128.402 L721.679,128.995 L720.575,129.547 L719.809,129.931 L719.331,130.17 L718.881,130.396 L718.46,130.606 L718.069,130.802 L717.711,130.981 L717.386,131.142 L717.098,131.285 L716.849,131.409 L716.643,131.51 L716.488,131.587 L716.378,131.641 L716.313,131.671 L716.32,131.668 L715.497,132.053 L713.839,132.841 L712.134,133.667 L710.388,134.523 L708.61,135.402 L706.807,136.297 L704.082,137.649 L700.423,139.447 L697.703,140.757 L695.925,141.594 L694.183,142.401 L692.487,143.164 L690.845,143.877 L689.244,144.54 L688.433,144.861 L688.463,144.851 L687.092,145.384 L684.372,146.422 L681.7,147.398 L679.056,148.302 L677.095,148.915 L675.811,149.283 L674.539,149.618 L673.276,149.918 L672.023,150.179 L670.779,150.4 L669.544,150.576 L668.317,150.707 L667.094,150.796 L665.876,150.833 L664.667,150.815 L663.464,150.739 L662.267,150.6 L661.078,150.397 L659.895,150.125 L658.719,149.782 L657.548,149.367 L656.372,148.888 L655.202,148.328 L654.04,147.684 L652.886,146.952 L651.74,146.128 L650.51,145.303 L649.231,144.424 L648.588,143.943 C648.309,143.63 647.596,143.849 646.995,144.433 C646.394,145.016 646.133,145.743 646.412,146.057 L646.412,146.057" fill="#000000"/>
  </g>
</svg>
